<svg width="65" height="111" viewBox="0 0 65 111" fill="none" xmlns="http://www.w3.org/2000/svg">
<path d="M64.767 56.226L32.383 0L0 56.226L32.383 76.866L64.767 56.226ZM34.756 37.365V13.523L55.277 49.109L34.756 37.365ZM57.175 55.514L34.756 69.748V42.821L57.175 55.514ZM30.011 37.365L9.608 48.99L30.011 13.523V37.365ZM30.011 42.822V69.749L7.592 55.515L30.011 42.823V42.822Z" fill="#2F364B"/>
<path d="M32.383 83.5072L0 62.8672L32.383 110.196L64.766 62.8672L32.383 83.5072ZM29.892 87.5402L30.011 87.6592V98.4532L16.963 79.2372L29.892 87.5402ZM47.922 79.2372L34.755 98.4532V87.6592L34.874 87.5402L47.922 79.2372Z" fill="#2F364B"/>
</svg>
