<svg width="343" height="47" viewBox="0 0 343 47" fill="none" xmlns="http://www.w3.org/2000/svg">
<path d="M0.375 0.722656H19.278C33.688 0.722656 43.604 9.86466 43.604 23.1897C43.604 36.5147 33.843 45.6567 19.278 45.6567H0.375V0.722656ZM18.813 40.0787C29.969 40.0787 37.096 33.2607 37.096 23.1897C37.096 13.1187 29.969 6.30066 18.813 6.30066H6.727V40.0787H18.813Z" fill="#2F364B"/>
<path d="M98.765 40.0787V45.6567H66.2271V0.722656H97.991V6.30066H72.735V20.0907H95.202V25.5137H72.735V40.0787H98.7661H98.765Z" fill="#2F364B"/>
<path d="M160.432 0.722656L140.754 45.6567H134.401L114.568 0.722656H121.54L137.654 37.5997L153.923 0.722656H160.431H160.432Z" fill="#2F364B"/>
<path d="M174.842 23.1898C174.842 9.86482 184.913 0.257812 198.703 0.257812C205.675 0.257812 211.718 2.58181 215.747 7.22981L211.564 11.2588C208.155 7.53981 203.817 5.99081 198.859 5.99081C188.788 5.99081 181.195 13.2728 181.195 23.1898C181.195 33.1068 188.632 40.3888 198.859 40.3888C203.817 40.3888 208.001 38.6848 211.564 34.9658L215.747 38.9948C211.564 43.6428 205.676 46.1218 198.548 46.1218C185.068 46.1218 174.842 36.5148 174.842 23.1898Z" fill="#2F364B"/>
<path d="M233.101 23.1898C233.101 10.0198 243.172 0.257812 257.117 0.257812C270.752 0.257812 280.978 10.0188 280.978 23.1898C280.978 36.3608 270.907 46.1218 257.117 46.1218C243.327 46.1218 233.101 36.3608 233.101 23.1898ZM274.471 23.1898C274.471 13.2738 267.034 5.99081 257.117 5.99081C247.046 5.99081 239.608 13.2728 239.608 23.1898C239.608 33.1068 247.045 40.3888 257.117 40.3888C267.033 40.5438 274.471 33.1068 274.471 23.1898Z" fill="#2F364B"/>
<path d="M342.181 0.722656V45.6567H336.913L309.953 12.1887V45.6567H303.6V0.722656H308.868L335.828 34.1907V0.722656H342.181Z" fill="#2F364B"/>
</svg>
