<svg width="439" height="111" viewBox="0 0 439 111" fill="none" xmlns="http://www.w3.org/2000/svg">
<path d="M96.375 34.7227H115.278C129.688 34.7227 139.604 43.8647 139.604 57.1897C139.604 70.5147 129.843 79.6567 115.278 79.6567H96.375V34.7227ZM114.813 74.0787C125.969 74.0787 133.096 67.2607 133.096 57.1897C133.096 47.1187 125.969 40.3007 114.813 40.3007H102.727V74.0787H114.813Z" fill="#2F364B"/>
<path d="M194.765 74.0787V79.6567H162.227V34.7227H193.991V40.3007H168.735V54.0907H191.202V59.5137H168.735V74.0787H194.766H194.765Z" fill="#2F364B"/>
<path d="M256.432 34.7227L236.754 79.6567H230.401L210.568 34.7227H217.54L233.654 71.5997L249.923 34.7227H256.431H256.432Z" fill="#2F364B"/>
<path d="M270.842 57.1898C270.842 43.8648 280.913 34.2578 294.703 34.2578C301.675 34.2578 307.718 36.5818 311.747 41.2298L307.564 45.2588C304.155 41.5398 299.817 39.9908 294.859 39.9908C284.788 39.9908 277.195 47.2728 277.195 57.1898C277.195 67.1068 284.632 74.3888 294.859 74.3888C299.817 74.3888 304.001 72.6848 307.564 68.9658L311.747 72.9948C307.564 77.6428 301.676 80.1218 294.548 80.1218C281.068 80.1218 270.842 70.5148 270.842 57.1898Z" fill="#2F364B"/>
<path d="M329.101 57.1898C329.101 44.0198 339.172 34.2578 353.117 34.2578C366.752 34.2578 376.978 44.0188 376.978 57.1898C376.978 70.3608 366.907 80.1218 353.117 80.1218C339.327 80.1218 329.101 70.3608 329.101 57.1898ZM370.471 57.1898C370.471 47.2738 363.034 39.9908 353.117 39.9908C343.046 39.9908 335.608 47.2728 335.608 57.1898C335.608 67.1068 343.045 74.3888 353.117 74.3888C363.033 74.5438 370.471 67.1068 370.471 57.1898Z" fill="#2F364B"/>
<path d="M438.181 34.7227V79.6567H432.913L405.953 46.1887V79.6567H399.6V34.7227H404.868L431.828 68.1907V34.7227H438.181Z" fill="#2F364B"/>
<path d="M64.767 56.226L32.383 0L0 56.226L32.383 76.866L64.767 56.226ZM34.756 37.365V13.523L55.277 49.109L34.756 37.365ZM57.175 55.514L34.756 69.748V42.821L57.175 55.514ZM30.011 37.365L9.608 48.99L30.011 13.523V37.365ZM30.011 42.822V69.749L7.592 55.515L30.011 42.823V42.822Z" fill="#2F364B"/>
<path d="M32.383 83.5072L0 62.8672L32.383 110.196L64.766 62.8672L32.383 83.5072ZM29.892 87.5402L30.011 87.6592V98.4532L16.963 79.2372L29.892 87.5402ZM47.922 79.2372L34.755 98.4532V87.6592L34.874 87.5402L47.922 79.2372Z" fill="#2F364B"/>
</svg>
